<svg width="20" height="24" viewBox="0 0 20 24" fill="none" xmlns="http://www.w3.org/2000/svg">
<path d="M19.7442 5.36444L19.2143 3.776C19.0125 3.17102 18.4483 2.76453 17.8108 2.76453H13.3571V1.31451C13.3571 0.589783 12.7678 0 12.0433 0H7.96481C7.24044 0 6.65103 0.589783 6.65103 1.31451V2.76453H2.19754C1.55978 2.76453 0.995631 3.17102 0.793849 3.776L0.263942 5.36444C0.143275 5.72607 0.204433 6.12653 0.427272 6.43579C0.650111 6.74506 1.01065 6.92981 1.39187 6.92981H1.94577L3.16488 22.0051C3.25552 23.1237 4.20474 24 5.32626 24H14.9292C16.0506 24 17 23.1237 17.0904 22.0049L18.3095 6.92981H18.6162C18.9975 6.92981 19.358 6.74506 19.5808 6.43597C19.8037 6.12671 19.8648 5.72607 19.7442 5.36444ZM8.05728 1.40625H11.9508V2.76453H8.05728V1.40625ZM15.6887 21.8915C15.6569 22.2854 15.3233 22.5938 14.9292 22.5938H5.32626C4.93222 22.5938 4.5986 22.2854 4.56674 21.8915L3.35659 6.92981H16.8987L15.6887 21.8915ZM1.69345 5.52356L2.12796 4.22095C2.13784 4.19092 2.16586 4.17078 2.19754 4.17078H17.8108C17.8424 4.17078 17.8703 4.19092 17.8803 4.22095L18.3148 5.52356H1.69345Z" fill="#FF3B30"/>
<path d="M13.4439 21.8421C13.4564 21.8428 13.4686 21.843 13.4811 21.843C13.8526 21.843 14.1631 21.5519 14.1826 21.1765L14.8428 8.50156C14.863 8.11375 14.5649 7.78287 14.1772 7.76273C13.7885 7.74204 13.4587 8.0405 13.4384 8.42832L12.7783 21.1032C12.7582 21.4911 13.0561 21.8219 13.4439 21.8421Z" fill="#FF3B30"/>
<path d="M5.85652 21.177C5.87703 21.5519 6.18721 21.8419 6.55799 21.8419C6.57081 21.8419 6.584 21.8415 6.597 21.8408C6.98463 21.8197 7.28181 21.4883 7.26075 21.1005L6.56916 8.42557C6.54811 8.03775 6.21669 7.74057 5.82887 7.76181C5.44124 7.78287 5.14406 8.11429 5.16512 8.50211L5.85652 21.177Z" fill="#FF3B30"/>
<path d="M10.0117 21.8429C10.4001 21.8429 10.7148 21.5281 10.7148 21.1398V8.46484C10.7148 8.07648 10.4001 7.76172 10.0117 7.76172C9.62335 7.76172 9.30859 8.07648 9.30859 8.46484V21.1398C9.30859 21.5281 9.62335 21.8429 10.0117 21.8429Z" fill="#FF3B30"/>
</svg>
