<svg width="6" height="16" viewBox="0 0 6 16" fill="none" xmlns="http://www.w3.org/2000/svg">
<path d="M0.925858 2.07464C0.925858 0.930669 1.85657 -1.40691e-07 3.00054 -9.06859e-08C4.14452 -4.0681e-08 5.0752 0.930669 5.0752 2.07464C5.0752 3.21872 4.14452 4.14943 3.00054 4.14943C1.85657 4.14943 0.925858 3.21876 0.925858 2.07464ZM4.31329 2.07464C4.31329 1.35082 3.72437 0.761905 3.00054 0.761905C2.27672 0.761905 1.6878 1.35082 1.6878 2.07464C1.6878 2.7986 2.27672 3.38752 3.00054 3.38752C3.72437 3.38752 4.31329 2.7986 4.31329 2.07464Z" fill="black"/>
<path d="M0.925908 8.00017C0.925908 6.8562 1.85658 5.92554 3.00055 5.92554C4.14453 5.92554 5.0752 6.8562 5.0752 8.00017C5.0752 9.14414 4.14453 10.0748 3.00055 10.0748C1.85658 10.0748 0.925907 9.14414 0.925908 8.00017ZM4.31333 8.00017C4.31333 7.27636 3.72441 6.68744 3.00059 6.68744C2.27677 6.68744 1.68785 7.27636 1.68785 8.00017C1.68785 8.72399 2.27677 9.31291 3.00059 9.31291C3.72441 9.31291 4.31333 8.72402 4.31333 8.00017Z" fill="black"/>
<path d="M0.925908 13.9256C0.925908 12.7815 1.85658 11.8508 3.00055 11.8508C4.14453 11.8508 5.0752 12.7815 5.0752 13.9256C5.0752 15.0696 4.14453 16.0003 3.00055 16.0003C1.85658 16.0003 0.925907 15.0696 0.925908 13.9256ZM4.31333 13.9256C4.31333 13.2017 3.72441 12.6127 3.00059 12.6127C2.27677 12.6127 1.68785 13.2017 1.68785 13.9256C1.68785 14.6494 2.27677 15.2384 3.00059 15.2384C3.72441 15.2384 4.31333 14.6495 4.31333 13.9256Z" fill="black"/>
</svg>
